#N canvas 0 213 1246 748 10;
#X text -578 384 default = D1 and D2;
#X obj -615 48 cnv 15 450 90 empty empty empty 20 12 0 14 -233017 -66577
0;
#X obj -615 287 cnv 15 450 260 empty empty empty 20 12 0 14 -233017
-66577 0;
#X text -604 292 Inlets:;
#X text -596 324 Inlet 1: message: draw [line|fill|point];
#X text -596 309 Inlet 1: gemlist;
#X text -614 499 Outlets:;
#X text -603 512 Outlet 1: gemlist;
#X obj -615 147 cnv 15 450 130 empty empty empty 20 12 0 14 -195568
-66577 0;
#X text -615 52 Description: Renders a complex tube;
#X text -605 149 Arguments:;
#X text -559 166 1 : 1st circle diameter;
#X text -559 182 2 : 2nd circle diameter;
#X text -596 374 Inlet 3: 2nd circle diameter;
#X text -595 360 Inlet 2: 1st circle diameter;
#X text -596 388 Inlet 4: hight of the tube;
#X text -596 404 Inlet 5: X tanslation of 1st circle;
#X text -596 419 Inlet 6: Y tanslation of 1st circle;
#X text -596 434 Inlet 7: X rotation of 1st circle;
#X text -596 449 Inlet 8: Y rotation of 1st circle;
#X text -596 481 Inlet 10: Y rotation of 2nd circle;
#X text -596 466 Inlet 9: X rotation of 2nd circle;
#X text -596 339 Inlet 1: message: numslices <#>;
#X text -612 71 The tube object generats a shape defined by 2 circles.
These 2 circles can be rotated and translated independantly to create
different shapes.;
#X text -559 218 4 : number of segments;
#X text -559 200 3 : height of the tube;
#X obj 135 123 bng 15 250 50 0 empty empty empty 17 7 0 10 -262144
-1 -1;
#X msg 251 22 \; pd dsp 1;
#X obj 19 206 gemwin;
#X msg 19 22 create \, dimen 1920 1200 \, 1;
#X msg 107 189 destroy \, 0;
#N canvas 144 22 1024 746 tube1 1;
#X obj 42 560 cnv 15 100 60 empty empty empty 20 12 0 14 -195568 -66577
0;
#X obj 52 81 gemhead;
#X msg 77 193 draw line;
#X floatatom 160 404 5 -40 2 1 D1 - -;
#X floatatom 162 431 5 0 0 1 D2 - -;
#X floatatom 164 479 5 0 0 1 H - -;
#X msg 116 366 numslices \$1;
#X obj 52 523 tube 0.5 0.9 2.5 30;
#X obj 52 575 pix_texture;
#X floatatom 361 372 0 0 0 0 - - -;
#X floatatom 461 399 0 0 0 0 - - -;
#X floatatom 528 426 0 0 0 0 - - -;
#X floatatom 609 454 0 0 0 0 - - -;
#X obj 163 83 bng 15 250 50 0 empty empty empty 17 7 0 10 -262144 -1
-1;
#X obj 461 355 random 10;
#X obj 361 321 metro 160;
#X obj 461 330 metro 160;
#X obj 528 371 metro 160;
#X obj 609 396 metro 160;
#X floatatom 163 502 5 0 0 0 - - -;
#X obj 222 389 hsl 128 15 -100 4.6 0 0 empty empty empty -2 -8 0 10
-262144 -1 -1 1943 1;
#X obj 222 416 hsl 128 15 0.1 10 0 0 empty empty empty -2 -8 0 10 -262144
-1 -1 1155 1;
#X obj 222 443 hsl 128 15 0.1 100 0 0 empty empty empty -2 -8 0 10
-262144 -1 -1 8089 1;
#X obj 223 471 hsl 128 15 -40 2 0 0 empty empty empty -2 -8 0 10 -262144
-1 -1 6652 1;
#X floatatom 227 340 10 0 0 0 - - -;
#X text 224 355 number of bangs;
#X text 267 282 change direction;
#X obj 244 281 bng 15 250 50 0 empty empty empty 0 -6 0 8 -262144 -1
-1;
#X floatatom 828 186 5 0 0 0 - - -;
#X msg 828 221 \$1;
#X floatatom 885 67 5 0 0 0 - - -;
#X floatatom 244 256 5 0 0 0 - - -;
#X obj 226 153 metro 160;
#X obj 828 306 tgl 15 0 empty empty empty 17 7 0 10 -262144 -1 -1 50.7173
50.7173;
#X obj 849 315 tgl 15 0 empty empty empty 17 7 0 10 -262144 -1 -1 67.088
67.088;
#X obj 361 347 counter -100 10;
#X obj 528 392 random 100;
#X obj 609 419 counter -40 2;
#X obj 244 227 counter 1;
#X obj 244 200 metro 4000;
#X obj 828 260 route 2 1 0;
#X obj 828 154 counter 3;
#X obj 870 356 tgl 15 0 empty empty empty 17 7 0 10 -262144 -1 -1 0
1;
#X obj 891 381 tgl 15 0 empty empty empty 17 7 0 10 -262144 -1 -1 3
3;
#X obj 227 314 counter 4 80;
#X obj 885 -3 metro 2000;
#X obj 885 31 random 2000;
#X msg 95 237 width 1;
#X obj 828 98 metro 2000;
#X text 293 298 comment;
#X text 312 275 comment;
#X obj 163 8 r bang;
#X text 43 559 comment;
#X obj 52 132 color 1 1 1;
#X obj 163 46 delay 10;
#X obj 1079 95 adc~;
#X obj 1091 140 fiddle~;
#X floatatom 1103 176 5 0 0 0 - - -;
#X floatatom 1155 170 5 0 0 0 - - -;
#X floatatom 1153 200 5 0 0 0 - - -;
#X obj 1037 275 moses 60;
#X floatatom 1029 330 5 0 0 0 - - -;
#X floatatom 1091 325 5 0 0 0 - - -;
#X floatatom 1143 357 5 0 0 0 - - -;
#X floatatom 1205 352 5 0 0 0 - - -;
#X obj 1140 294 moses 90;
#X obj 1044 218 moses 60;
#X obj 998 243 bng 15 250 50 0 empty empty empty 17 7 0 10 -262144
-1 -1;
#X obj 1097 255 bng 15 250 50 0 empty empty empty 17 7 0 10 -262144
-1 -1;
#X connect 1 0 53 0;
#X connect 2 0 7 0;
#X connect 3 0 7 1;
#X connect 4 0 7 2;
#X connect 5 0 7 3;
#X connect 6 0 7 0;
#X connect 7 0 8 0;
#X connect 9 0 20 0;
#X connect 10 0 21 0;
#X connect 11 0 22 0;
#X connect 12 0 23 0;
#X connect 13 0 32 0;
#X connect 13 0 39 0;
#X connect 13 0 2 0;
#X connect 13 0 47 0;
#X connect 13 0 45 0;
#X connect 13 0 48 0;
#X connect 14 0 10 0;
#X connect 15 0 35 0;
#X connect 16 0 14 0;
#X connect 17 0 36 0;
#X connect 18 0 37 0;
#X connect 19 0 7 9;
#X connect 20 0 3 0;
#X connect 21 0 4 0;
#X connect 22 0 4 0;
#X connect 23 0 5 0;
#X connect 24 0 6 0;
#X connect 27 0 44 1;
#X connect 28 0 29 0;
#X connect 29 0 40 0;
#X connect 30 0 48 1;
#X connect 31 0 27 0;
#X connect 32 0 44 0;
#X connect 33 0 15 0;
#X connect 34 0 16 0;
#X connect 35 0 9 0;
#X connect 37 0 12 0;
#X connect 38 0 31 0;
#X connect 39 0 38 0;
#X connect 40 2 42 0;
#X connect 40 3 43 0;
#X connect 41 0 28 0;
#X connect 42 0 17 0;
#X connect 43 0 18 0;
#X connect 44 0 24 0;
#X connect 45 0 46 0;
#X connect 46 0 30 0;
#X connect 47 0 7 0;
#X connect 48 0 41 0;
#X connect 51 0 54 0;
#X connect 53 0 7 0;
#X connect 54 0 13 0;
#X connect 55 0 56 0;
#X connect 56 0 57 0;
#X connect 56 2 59 0;
#X connect 56 3 58 0;
#X connect 57 0 66 0;
#X connect 58 0 65 0;
#X connect 59 0 60 0;
#X connect 60 0 33 0;
#X connect 60 0 61 0;
#X connect 60 1 62 0;
#X connect 62 0 11 0;
#X connect 65 0 63 0;
#X connect 65 1 64 0;
#X connect 66 0 67 0;
#X connect 66 1 68 0;
#X connect 67 0 34 0;
#X restore -104 226 pd tube1;
#X obj 217 183 s bang;
#X text 91 103 proyector full hd;
#X obj 363 156 syphonserver name;
#X obj 362 106 gemhead 999;
#X obj -84 103 dsp;
#X floatatom -69 139 5 0 0 0 - - -;
#X floatatom -124 144 5 0 0 0 - - -;
#N canvas 165 24 1024 746 tube2 0;
#X obj 42 560 cnv 15 100 60 empty empty empty 20 12 0 14 -195568 -66577
0;
#X obj 52 81 gemhead;
#X msg 77 193 draw line;
#X floatatom 160 404 5 -40 2 1 D1 - -;
#X floatatom 162 431 5 0 0 1 D2 - -;
#X floatatom 164 479 5 0 0 1 H - -;
#X msg 116 366 numslices \$1;
#X obj 52 523 tube 0.5 0.9 2.5 30;
#X obj 52 575 pix_texture;
#X floatatom 361 372 0 0 0 0 - - -;
#X floatatom 461 399 0 0 0 0 - - -;
#X floatatom 528 426 0 0 0 0 - - -;
#X floatatom 609 454 0 0 0 0 - - -;
#X obj 163 83 bng 15 250 50 0 empty empty empty 17 7 0 10 -262144 -1
-1;
#X obj 461 355 random 10;
#X obj 361 321 metro 160;
#X obj 461 330 metro 160;
#X obj 528 371 metro 160;
#X obj 609 396 metro 160;
#X floatatom 163 502 5 0 0 0 - - -;
#X obj 222 389 hsl 128 15 -100 4.6 0 0 empty empty empty -2 -8 0 10
-262144 -1 -1 1943 1;
#X obj 222 416 hsl 128 15 0.1 10 0 0 empty empty empty -2 -8 0 10 -262144
-1 -1 11417 1;
#X obj 222 443 hsl 128 15 0.1 100 0 0 empty empty empty -2 -8 0 10
-262144 -1 -1 8089 1;
#X obj 223 471 hsl 128 15 -40 2 0 0 empty empty empty -2 -8 0 10 -262144
-1 -1 4838 1;
#X floatatom 227 340 10 0 0 0 - - -;
#X text 224 355 number of bangs;
#X text 267 282 change direction;
#X obj 244 281 bng 15 250 50 0 empty empty empty 0 -6 0 8 -262144 -1
-1;
#X floatatom 828 186 5 0 0 0 - - -;
#X msg 828 221 \$1;
#X floatatom 885 67 5 0 0 0 - - -;
#X floatatom 244 256 5 0 0 0 - - -;
#X obj 226 153 metro 160;
#X obj 828 306 tgl 15 0 empty empty empty 17 7 0 10 -262144 -1 -1 50.7173
50.7173;
#X obj 849 315 tgl 15 0 empty empty empty 17 7 0 10 -262144 -1 -1 67.088
67.088;
#X obj 361 347 counter -100 10;
#X obj 528 392 random 100;
#X obj 609 419 counter -40 2;
#X obj 244 227 counter 1;
#X obj 244 200 metro 4000;
#X obj 828 260 route 2 1 0;
#X obj 828 154 counter 3;
#X obj 870 356 tgl 15 0 empty empty empty 17 7 0 10 -262144 -1 -1 1
1;
#X obj 891 381 tgl 15 0 empty empty empty 17 7 0 10 -262144 -1 -1 3
3;
#X obj 885 -3 metro 2000;
#X obj 885 31 random 2000;
#X obj 828 98 metro 2000;
#X text 293 298 comment;
#X text 312 275 comment;
#X obj 163 8 r bang;
#X text 43 559 comment;
#X obj 1079 95 adc~;
#X obj 1091 140 fiddle~;
#X floatatom 1103 176 5 0 0 0 - - -;
#X floatatom 1155 170 5 0 0 0 - - -;
#X floatatom 1153 200 5 0 0 0 - - -;
#X obj 1037 275 moses 60;
#X floatatom 1029 330 5 0 0 0 - - -;
#X floatatom 1091 325 5 0 0 0 - - -;
#X floatatom 1143 357 5 0 0 0 - - -;
#X floatatom 1205 352 5 0 0 0 - - -;
#X obj 1140 294 moses 90;
#X obj 1044 218 moses 60;
#X obj 998 243 bng 15 250 50 0 empty empty empty 17 7 0 10 -262144
-1 -1;
#X obj 1097 255 bng 15 250 50 0 empty empty empty 17 7 0 10 -262144
-1 -1;
#X obj 459 -66 tgl 15 0 empty empty empty 0 -6 0 8 -262144 -1 -1 0
1;
#X obj 482 -85 tgl 15 0 empty empty empty 0 -6 0 8 -262144 -1 -1 1
1;
#X obj 531 -40 tgl 15 0 empty empty empty 0 -6 0 8 -262144 -1 -1 0
1;
#X obj 557 -62 tgl 15 0 empty empty empty 0 -6 0 8 -262144 -1 -1 1
1;
#X msg 531 -24 left \$1;
#X msg 557 -46 right \$1;
#X obj 372 -28 tgl 15 0 empty empty empty 0 -6 0 8 -262144 -1 -1 1
1;
#X obj 398 -50 tgl 15 0 empty empty empty 0 -6 0 8 -262144 -1 -1 0
1;
#X msg 398 -34 up \$1;
#X msg 372 -12 down \$1;
#X msg 564 -90 reset;
#X msg 482 -68 forward \$1;
#X msg 459 -50 reverse \$1;
#X obj 476 -103 gemhead 2;
#X text 454 -126 pipa willy dice....;
#X obj 163 46 delay 10;
#X obj 227 314 counter 4 60;
#X obj 52 132 color 0 0.5 0.5;
#X msg 95 237 width 2;
#X text 367 24;
#X msg 272 -48 distance \$1;
#X msg 267 7 speed \$1;
#X obj 229 -109 vsl 15 128 0 127 0 0 empty empty empty 0 -9 0 10 -262144
-1 -1 0 1;
#X msg 688 -41 lookZ \$1;
#X obj 513 67 camera;
#X obj 559 530 rotateXYZ;
#X floatatom 663 483 5 0 0 0 - - -;
#X connect 1 0 82 0;
#X connect 2 0 7 0;
#X connect 3 0 7 1;
#X connect 4 0 7 2;
#X connect 5 0 7 3;
#X connect 6 0 7 0;
#X connect 7 0 90 0;
#X connect 9 0 20 0;
#X connect 10 0 21 0;
#X connect 11 0 22 0;
#X connect 12 0 23 0;
#X connect 13 0 32 0;
#X connect 13 0 39 0;
#X connect 13 0 2 0;
#X connect 13 0 83 0;
#X connect 13 0 44 0;
#X connect 13 0 46 0;
#X connect 14 0 10 0;
#X connect 15 0 35 0;
#X connect 16 0 14 0;
#X connect 17 0 36 0;
#X connect 18 0 37 0;
#X connect 19 0 7 9;
#X connect 20 0 3 0;
#X connect 21 0 4 0;
#X connect 22 0 4 0;
#X connect 23 0 5 0;
#X connect 24 0 6 0;
#X connect 27 0 81 1;
#X connect 28 0 29 0;
#X connect 29 0 40 0;
#X connect 30 0 46 1;
#X connect 31 0 27 0;
#X connect 32 0 81 0;
#X connect 33 0 15 0;
#X connect 34 0 16 0;
#X connect 35 0 9 0;
#X connect 37 0 12 0;
#X connect 38 0 31 0;
#X connect 39 0 38 0;
#X connect 40 2 42 0;
#X connect 40 3 43 0;
#X connect 41 0 28 0;
#X connect 42 0 17 0;
#X connect 43 0 18 0;
#X connect 44 0 45 0;
#X connect 45 0 30 0;
#X connect 46 0 41 0;
#X connect 49 0 80 0;
#X connect 51 0 52 0;
#X connect 52 0 53 0;
#X connect 52 2 55 0;
#X connect 52 3 54 0;
#X connect 53 0 62 0;
#X connect 54 0 61 0;
#X connect 55 0 56 0;
#X connect 56 0 33 0;
#X connect 56 0 57 0;
#X connect 56 1 58 0;
#X connect 58 0 11 0;
#X connect 61 0 59 0;
#X connect 61 1 60 0;
#X connect 62 0 63 0;
#X connect 62 1 64 0;
#X connect 63 0 34 0;
#X connect 65 0 77 0;
#X connect 66 0 76 0;
#X connect 67 0 69 0;
#X connect 68 0 70 0;
#X connect 69 0 89 0;
#X connect 71 0 74 0;
#X connect 72 0 73 0;
#X connect 73 0 89 0;
#X connect 74 0 89 0;
#X connect 76 0 89 0;
#X connect 77 0 89 0;
#X connect 80 0 13 0;
#X connect 81 0 24 0;
#X connect 82 0 7 0;
#X connect 83 0 7 0;
#X connect 87 0 88 0;
#X connect 88 0 89 0;
#X connect 91 0 90 3;
#X connect 91 0 90 2;
#X restore -108 271 pd tube2;
#X connect 26 0 27 0;
#X connect 26 0 29 0;
#X connect 26 0 32 0;
#X connect 29 0 28 0;
#X connect 30 0 28 0;
#X connect 35 0 34 0;
#X connect 36 0 38 0;
#X connect 36 1 37 0;
#X coords 0 -1 1 1 85 60 1 100 100;
